<svg xmlns="http://www.w3.org/2000/svg" width="1600" height="900" viewBox="0 0 1600 900"><defs><linearGradient id="gold" x1="0" y1="0" x2="1" y2="1"><stop stop-color="#EBCB8B"/><stop offset=".55" stop-color="#C4912E"/><stop offset="1" stop-color="#A6781F"/></linearGradient><linearGradient id="shade" x1="0" y1="0" x2="1" y2="0"><stop stop-color="#0D0D0D" stop-opacity=".92"/><stop offset=".38" stop-color="#0D0D0D" stop-opacity=".52"/><stop offset=".7" stop-color="#0D0D0D" stop-opacity=".08"/><stop offset="1" stop-color="#0D0D0D" stop-opacity="0"/></linearGradient><style>.d{font-family:'Space Grotesk','Noto Sans SC','PingFang SC',sans-serif}.u{font-family:Inter,'Noto Sans SC','PingFang SC',sans-serif}.h{font-weight:600}.cap{font-size:12px;letter-spacing:2px}</style></defs>
<image href="backgrounds/anz-real-estate.png" x="0" y="110" width="1600" height="790" preserveAspectRatio="xMidYMid slice"/><rect x="0" y="110" width="1600" height="790" fill="url(#shade)"/><rect width="1600" height="110" fill="#FBF8F3"/><image href="brand/logo-horizontal.svg" x="48" y="25" width="260" height="59"/><text x="1540" y="51" text-anchor="end" class="u cap" fill="#C4912E">REAL ESTATE · AUSTRALIA + NEW ZEALAND</text><text x="1540" y="84" text-anchor="end" class="d h" font-size="28" fill="#1A1A1A">房地产行业</text>
<text x="65" y="190" class="d h" font-size="39" fill="#FBF8F3">从区域需求，到估价、看房与委托</text><text x="65" y="226" class="u" font-size="17" fill="#EAE6DF">把内容、广告和客户跟进连接到真实物业业务结果。</text>
<rect x="65" y="268" width="430" height="530" rx="24" fill="#0D0D0D" fill-opacity=".86" stroke="#EBCB8B" stroke-opacity=".35"/><text x="105" y="315" class="u cap" fill="#EBCB8B">CONNECT · 现有系统</text><line x1="105" y1="337" x2="455" y2="337" stroke="#4A4640"/><text x="105" y="405" class="u" font-size="17" fill="#FBF8F3"><tspan fill="#EBCB8B">01</tspan><tspan dx="18">网站 / 房产门户</tspan></text><text x="105" y="458" class="u" font-size="17" fill="#FBF8F3"><tspan fill="#EBCB8B">02</tspan><tspan dx="18">房源系统</tspan></text><text x="105" y="511" class="u" font-size="17" fill="#FBF8F3"><tspan fill="#EBCB8B">03</tspan><tspan dx="18">CRM / 经纪系统</tspan></text><text x="105" y="564" class="u" font-size="17" fill="#FBF8F3"><tspan fill="#EBCB8B">04</tspan><tspan dx="18">日历 / 看房预约</tspan></text><text x="105" y="625" class="u cap" fill="#EBCB8B">PLAYBOOK · 行业动作</text><text x="105" y="658" class="u" font-size="15" fill="#FBF8F3">区域内容</text><text x="105" y="690" class="u" font-size="15" fill="#FBF8F3">房源推广</text><text x="105" y="722" class="u" font-size="15" fill="#FBF8F3">估价获客</text><text x="105" y="754" class="u" font-size="15" fill="#FBF8F3">看房召回</text><text x="105" y="786" class="u" font-size="15" fill="#FBF8F3">长期培育</text>
<rect x="535" y="188" width="1005" height="470" rx="24" fill="#FBF8F3" fill-opacity=".94"/><text x="575" y="235" class="u cap" fill="#C4912E">VERTICAL GROWTH INTELLIGENCE</text><text x="575" y="278" class="d h" font-size="29" fill="#1A1A1A">行业信号进入同一个 IMPACT 决策闭环</text><rect x="575" y="320" width="164" height="58" rx="12" fill="#fff" stroke="#EAE6DF"/><text x="657" y="356" text-anchor="middle" class="u" font-size="16" fill="#1A1A1A">区域需求</text><rect x="760" y="320" width="164" height="58" rx="12" fill="#fff" stroke="#EAE6DF"/><text x="842" y="356" text-anchor="middle" class="u" font-size="16" fill="#1A1A1A">买卖意图</text><rect x="945" y="320" width="164" height="58" rx="12" fill="#fff" stroke="#EAE6DF"/><text x="1027" y="356" text-anchor="middle" class="u" font-size="16" fill="#1A1A1A">房源表现</text><rect x="1130" y="320" width="164" height="58" rx="12" fill="#fff" stroke="#EAE6DF"/><text x="1212" y="356" text-anchor="middle" class="u" font-size="16" fill="#1A1A1A">经纪产能</text><rect x="1315" y="320" width="164" height="58" rx="12" fill="#fff" stroke="#EAE6DF"/><text x="1397" y="356" text-anchor="middle" class="u" font-size="16" fill="#1A1A1A">成交概率</text><text x="575" y="410" class="u cap" fill="#C4912E">IMPACT · INSPECT → MEASURE → PRESCRIBE → ACT → CHECK → TUNE</text><g transform="translate(570 422)"><circle cx="36" cy="36" r="36" fill="#1A1A1A"/><text x="36" y="34" text-anchor="middle" class="d" font-size="25" font-weight="600" fill="#EBCB8B">I</text><text x="36" y="55" text-anchor="middle" class="u" font-size="12" fill="#FBF8F3">发现</text></g><g transform="translate(727 422)"><circle cx="36" cy="36" r="36" fill="#1A1A1A"/><text x="36" y="34" text-anchor="middle" class="d" font-size="25" font-weight="600" fill="#EBCB8B">M</text><text x="36" y="55" text-anchor="middle" class="u" font-size="12" fill="#FBF8F3">衡量</text></g><g transform="translate(884 422)"><circle cx="36" cy="36" r="36" fill="#1A1A1A"/><text x="36" y="34" text-anchor="middle" class="d" font-size="25" font-weight="600" fill="#EBCB8B">P</text><text x="36" y="55" text-anchor="middle" class="u" font-size="12" fill="#FBF8F3">决策</text></g><g transform="translate(1041 422)"><circle cx="36" cy="36" r="36" fill="#1A1A1A"/><text x="36" y="34" text-anchor="middle" class="d" font-size="25" font-weight="600" fill="#EBCB8B">A</text><text x="36" y="55" text-anchor="middle" class="u" font-size="12" fill="#FBF8F3">执行</text></g><g transform="translate(1198 422)"><circle cx="36" cy="36" r="36" fill="#1A1A1A"/><text x="36" y="34" text-anchor="middle" class="d" font-size="25" font-weight="600" fill="#EBCB8B">C</text><text x="36" y="55" text-anchor="middle" class="u" font-size="12" fill="#FBF8F3">验证</text></g><g transform="translate(1355 422)"><circle cx="36" cy="36" r="36" fill="url(#gold)"/><text x="36" y="34" text-anchor="middle" class="d" font-size="25" font-weight="600" fill="#0D0D0D">T</text><text x="36" y="55" text-anchor="middle" class="u" font-size="12" fill="#0D0D0D">调优</text></g><line x1="575" y1="530" x2="1500" y2="530" stroke="#C4912E" stroke-width="2"/><text x="575" y="555" class="u cap" fill="#C4912E">VERIFIED OUTCOMES</text><text x="575" y="574" text-anchor="start" class="u" font-size="16" fill="#1A1A1A">估价线索</text><text x="760" y="574" text-anchor="start" class="u" font-size="16" fill="#1A1A1A">看房预约</text><text x="945" y="574" text-anchor="start" class="u" font-size="16" fill="#1A1A1A">委托签约</text><text x="1130" y="574" text-anchor="start" class="u" font-size="16" fill="#1A1A1A">销售 Pipeline</text><text x="1315" y="574" text-anchor="start" class="u" font-size="16" fill="#1A1A1A">获客成本</text>
<rect x="535" y="688" width="1005" height="110" rx="20" fill="#0D0D0D" fill-opacity=".92"/><text x="575" y="726" class="u cap" fill="#EBCB8B">COMPOUNDING MOAT · 干预—结果学习资产</text><text x="575" y="764" class="d h" font-size="23" fill="#FBF8F3">Campaign → Enquiry → Inspection → Listing → Sale</text>
<rect x="65" y="825" width="1475" height="46" rx="12" fill="#FBF8F3" fill-opacity=".92"/><text x="90" y="854" class="u" font-size="14" fill="#1A1A1A">ME：Intelligence + IMPACT + Governance</text><text x="1515" y="854" text-anchor="end" class="u" font-size="14" fill="#A6781F">房源、合同、交易与佣金由外部系统负责</text></svg>